<?xml version="1.0" encoding="utf-8"?>
<!-- Generator: Adobe Adobe Illustrator 29.2.0, SVG Export Plug-In . SVG Version: 6.00 Build 0)  -->
<svg version="1.1" id="레이어_1" xmlns="http://www.w3.org/2000/svg" xmlns:xlink="http://www.w3.org/1999/xlink" x="0px"
	 y="0px" width="80px" height="80px" viewBox="0 0 80 80" style="enable-background:new 0 0 80 80;" xml:space="preserve">
<style type="text/css">
	.st0{fill:#FFD8D8;}
	.st1{fill:#EB5A5A;}
	.st2{clip-path:url(#SVGID_00000036243689733026347530000003008794684887744168_);}
	
		.st3{clip-path:url(#SVGID_00000165210933943800529420000002028463921303378560_);fill-rule:evenodd;clip-rule:evenodd;fill:#4885ED;}
	
		.st4{clip-path:url(#SVGID_00000165210933943800529420000002028463921303378560_);fill-rule:evenodd;clip-rule:evenodd;fill:#3CBA54;}
	
		.st5{clip-path:url(#SVGID_00000165210933943800529420000002028463921303378560_);fill-rule:evenodd;clip-rule:evenodd;fill:#F4C20D;}
	
		.st6{clip-path:url(#SVGID_00000165210933943800529420000002028463921303378560_);fill-rule:evenodd;clip-rule:evenodd;fill:#E94336;}
</style>
<circle class="st0" cx="34" cy="36.4" r="5.1"/>
<path class="st1" d="M38.1,65.8h0.3v1.8h-0.3V65.8z M38.3,66.5h0.4v0.3h-0.4V66.5z M36.6,66h1.4v0.3h-1.4V66z M37.2,66.4
	c0.1,0,0.2,0,0.3,0.1c0.1,0,0.2,0.1,0.2,0.2c0,0.1,0.1,0.1,0.1,0.2c0,0.1,0,0.2-0.1,0.2c0,0.1-0.1,0.1-0.2,0.2
	c-0.1,0-0.2,0.1-0.3,0.1c-0.1,0-0.2,0-0.3-0.1c-0.1,0-0.2-0.1-0.2-0.2c0-0.1-0.1-0.1-0.1-0.2c0-0.1,0-0.2,0.1-0.2
	c0-0.1,0.1-0.1,0.2-0.2C37,66.4,37.1,66.4,37.2,66.4z M37.2,66.6c-0.1,0-0.1,0-0.2,0.1S37,66.8,37,66.8c0,0.1,0,0.1,0.1,0.1
	s0.1,0.1,0.2,0.1c0.1,0,0.1,0,0.2-0.1c0,0,0.1-0.1,0.1-0.1c0-0.1,0-0.1-0.1-0.1C37.4,66.7,37.3,66.6,37.2,66.6z M37.1,65.8h0.3v0.4
	h-0.3V65.8z M36.9,67.8h1.6v0.3h-1.6V67.8z M36.9,67.4h0.3V68h-0.3V67.4z M39.1,65.9h1.5v0.3h-1.5V65.9z M38.8,66.7H41V67h-2.1V66.7
	z M39.7,66.9h0.3v0.5h-0.3V66.9z M40.4,65.9h0.3v0.2c0,0.1,0,0.2,0,0.3c0,0.1,0,0.3-0.1,0.4l-0.3,0c0-0.2,0.1-0.3,0.1-0.4
	c0-0.1,0-0.2,0-0.3V65.9z M39.1,67.3h1.7v0.8h-0.3v-0.6h-1.3V67.3z M42.8,65.8h0.3v2.4h-0.3V65.8z M42.5,66.7h0.4V67h-0.4V66.7z
	 M42.3,65.8h0.3V68h-0.3V65.8z M41.2,67.3h0.2c0.1,0,0.2,0,0.3,0c0.1,0,0.2,0,0.3,0c0.1,0,0.2,0,0.3,0l0,0.3c-0.1,0-0.2,0-0.3,0
	c-0.1,0-0.2,0-0.3,0c-0.1,0-0.2,0-0.3,0h-0.2V67.3z M41.2,66.1h0.9v0.3h-0.5v1.1h-0.3V66.1z"/>
<g>
	<g>
		<defs>
			<rect id="SVGID_1_" x="-3.5" y="-0.3" width="87.1" height="80.7"/>
		</defs>
		<clipPath id="SVGID_00000117652846193960551440000017115089840640753314_">
			<use xlink:href="#SVGID_1_"  style="overflow:visible;"/>
		</clipPath>
		<g style="clip-path:url(#SVGID_00000117652846193960551440000017115089840640753314_);">
			<defs>
				<rect id="SVGID_00000038397094174967800860000016282858577042181041_" x="-3.5" y="-0.3" width="87.1" height="80.7"/>
			</defs>
			<clipPath id="SVGID_00000165218793949952318950000006735000364570558371_">
				<use xlink:href="#SVGID_00000038397094174967800860000016282858577042181041_"  style="overflow:visible;"/>
			</clipPath>
			
				<path style="clip-path:url(#SVGID_00000165218793949952318950000006735000364570558371_);fill-rule:evenodd;clip-rule:evenodd;fill:#4885ED;" d="
				M67.2,34.9H40.6v10.9h15.2c-0.7,3.5-2.6,6.5-5.6,8.5l9.1,7.1c5.3-4.9,8.4-12.2,8.4-20.8C67.8,38.6,67.6,36.7,67.2,34.9"/>
			
				<path style="clip-path:url(#SVGID_00000165218793949952318950000006735000364570558371_);fill-rule:evenodd;clip-rule:evenodd;fill:#3CBA54;" d="
				M50.2,54.3C47.7,56,44.4,57,40.6,57c-7.4,0-13.6-5-15.8-11.6l-9.4,7.3c4.6,9.2,14.2,15.6,25.2,15.6c7.6,0,14-2.5,18.7-6.8
				L50.2,54.3z"/>
			
				<path style="clip-path:url(#SVGID_00000165218793949952318950000006735000364570558371_);fill-rule:evenodd;clip-rule:evenodd;fill:#F4C20D;" d="
				M24.8,34.6l-9.4-7.3c-1.9,3.8-3,8.1-3,12.7c0,4.6,1.1,8.9,3,12.7l9.4-7.3C24.3,43.7,24,41.9,24,40C24,38.1,24.3,36.3,24.8,34.6"
				/>
			
				<path style="clip-path:url(#SVGID_00000165218793949952318950000006735000364570558371_);fill-rule:evenodd;clip-rule:evenodd;fill:#E94336;" d="
				M40.6,11.8c-11,0-20.6,6.3-25.2,15.6l9.4,7.3C27.1,28,33.3,23,40.6,23c4.1,0,7.9,1.4,10.8,4.2l8.1-8.1
				C54.7,14.6,48.3,11.8,40.6,11.8"/>
		</g>
	</g>
</g>
</svg>
