<svg width="80" height="80" viewBox="0 0 80 80" fill="none" xmlns="http://www.w3.org/2000/svg">
<circle cx="40" cy="40" r="40" fill="#DAE3FF"/>
<path d="M22.16 37.04H27.04V39.18H22.16V37.04ZM17.12 32.66H19.26V35.36C19.26 36.52 19.16 37.6467 18.96 38.74C18.76 39.8333 18.4533 40.8533 18.04 41.8C17.6267 42.7467 17.1 43.58 16.46 44.3C15.8333 45.02 15.0867 45.6 14.22 46.04L12.56 43.92C13.3467 43.5467 14.02 43.06 14.58 42.46C15.1533 41.86 15.6267 41.18 16 40.42C16.3867 39.6467 16.6667 38.8333 16.84 37.98C17.0267 37.1133 17.12 36.24 17.12 35.36V32.66ZM17.66 32.66H19.78V35.36C19.78 36.2267 19.8667 37.0867 20.04 37.94C20.2133 38.78 20.4733 39.5667 20.82 40.3C21.18 41.0333 21.64 41.6867 22.2 42.26C22.76 42.82 23.4267 43.2733 24.2 43.62L22.6 45.74C21.7333 45.3133 20.9867 44.7533 20.36 44.06C19.7333 43.3533 19.22 42.5467 18.82 41.64C18.4333 40.7333 18.14 39.7467 17.94 38.68C17.7533 37.6133 17.66 36.5067 17.66 35.36V32.66ZM25.7 31.22H28.36V49.8H25.7V31.22ZM37.8384 40.06H40.4784V42.66H37.8384V40.06ZM39.1984 31.42C41.3051 31.42 42.9451 31.6933 44.1184 32.24C45.3051 32.7733 45.8984 33.5533 45.8984 34.58C45.8984 35.5933 45.3051 36.3733 44.1184 36.92C42.9451 37.4667 41.3051 37.74 39.1984 37.74C37.0784 37.74 35.4251 37.4667 34.2384 36.92C33.0651 36.3733 32.4784 35.5933 32.4784 34.58C32.4784 33.5533 33.0651 32.7733 34.2384 32.24C35.4251 31.6933 37.0784 31.42 39.1984 31.42ZM39.1784 33.36C38.2984 33.36 37.5651 33.4067 36.9784 33.5C36.3918 33.58 35.9518 33.7133 35.6584 33.9C35.3784 34.0733 35.2384 34.3 35.2384 34.58C35.2384 34.86 35.3784 35.0933 35.6584 35.28C35.9518 35.4533 36.3918 35.58 36.9784 35.66C37.5651 35.74 38.2984 35.78 39.1784 35.78C40.0718 35.78 40.8118 35.74 41.3984 35.66C41.9851 35.58 42.4184 35.4533 42.6984 35.28C42.9784 35.0933 43.1184 34.86 43.1184 34.58C43.1184 34.3 42.9784 34.0733 42.6984 33.9C42.4184 33.7133 41.9851 33.58 41.3984 33.5C40.8118 33.4067 40.0718 33.36 39.1784 33.36ZM30.7984 38.52H47.5584V40.62H30.7984V38.52ZM32.7184 41.84H45.5184V46.58H35.3784V48.22H32.7384V44.74H42.8984V43.8H32.7184V41.84ZM32.7384 47.64H46.0184V49.66H32.7384V47.64ZM62.1769 31.24H64.7169V49.76H62.1769V31.24ZM59.7169 38.38H62.7969V40.52H59.7169V38.38ZM58.0369 31.56H60.4969V48.9H58.0369V31.56ZM49.3369 43.4H50.6169C51.3902 43.4 52.1235 43.3933 52.8169 43.38C53.5102 43.3533 54.1969 43.3067 54.8769 43.24C55.5702 43.16 56.2769 43.06 56.9969 42.94L57.2169 45.1C56.4702 45.2333 55.7435 45.34 55.0369 45.42C54.3302 45.5 53.6169 45.5533 52.8969 45.58C52.1769 45.5933 51.4169 45.6 50.6169 45.6H49.3369V43.4ZM49.3369 33.4H56.1569V35.54H51.9569V44.46H49.3369V33.4Z" fill="#254DD1"/>
</svg>
