<svg width="80" height="80" viewBox="0 0 80 80" fill="none" xmlns="http://www.w3.org/2000/svg">
<circle cx="40" cy="40" r="40" fill="#FFE8DF"/>
<path d="M14.16 37.04H19.04V39.18H14.16V37.04ZM9.12 32.66H11.26V35.36C11.26 36.52 11.16 37.6467 10.96 38.74C10.76 39.8333 10.4533 40.8533 10.04 41.8C9.62667 42.7467 9.1 43.58 8.46 44.3C7.83333 45.02 7.08667 45.6 6.22 46.04L4.56 43.92C5.34667 43.5467 6.02 43.06 6.58 42.46C7.15333 41.86 7.62667 41.18 8 40.42C8.38667 39.6467 8.66667 38.8333 8.84 37.98C9.02667 37.1133 9.12 36.24 9.12 35.36V32.66ZM9.66 32.66H11.78V35.36C11.78 36.2267 11.8667 37.0867 12.04 37.94C12.2133 38.78 12.4733 39.5667 12.82 40.3C13.18 41.0333 13.64 41.6867 14.2 42.26C14.76 42.82 15.4267 43.2733 16.2 43.62L14.6 45.74C13.7333 45.3133 12.9867 44.7533 12.36 44.06C11.7333 43.3533 11.22 42.5467 10.82 41.64C10.4333 40.7333 10.14 39.7467 9.94 38.68C9.75333 37.6133 9.66 36.5067 9.66 35.36V32.66ZM17.7 31.22H20.36V49.8H17.7V31.22ZM29.8384 40.06H32.4784V42.66H29.8384V40.06ZM31.1984 31.42C33.3051 31.42 34.9451 31.6933 36.1184 32.24C37.3051 32.7733 37.8984 33.5533 37.8984 34.58C37.8984 35.5933 37.3051 36.3733 36.1184 36.92C34.9451 37.4667 33.3051 37.74 31.1984 37.74C29.0784 37.74 27.4251 37.4667 26.2384 36.92C25.0651 36.3733 24.4784 35.5933 24.4784 34.58C24.4784 33.5533 25.0651 32.7733 26.2384 32.24C27.4251 31.6933 29.0784 31.42 31.1984 31.42ZM31.1784 33.36C30.2984 33.36 29.5651 33.4067 28.9784 33.5C28.3918 33.58 27.9518 33.7133 27.6584 33.9C27.3784 34.0733 27.2384 34.3 27.2384 34.58C27.2384 34.86 27.3784 35.0933 27.6584 35.28C27.9518 35.4533 28.3918 35.58 28.9784 35.66C29.5651 35.74 30.2984 35.78 31.1784 35.78C32.0718 35.78 32.8118 35.74 33.3984 35.66C33.9851 35.58 34.4184 35.4533 34.6984 35.28C34.9784 35.0933 35.1184 34.86 35.1184 34.58C35.1184 34.3 34.9784 34.0733 34.6984 33.9C34.4184 33.7133 33.9851 33.58 33.3984 33.5C32.8118 33.4067 32.0718 33.36 31.1784 33.36ZM22.7984 38.52H39.5584V40.62H22.7984V38.52ZM24.7184 41.84H37.5184V46.58H27.3784V48.22H24.7384V44.74H34.8984V43.8H24.7184V41.84ZM24.7384 47.64H38.0184V49.66H24.7384V47.64ZM49.0969 35.02H54.1369V37.16H49.0969V35.02ZM49.0969 40.78H54.1369V42.92H49.0969V40.78ZM45.8769 32.52C46.7969 32.52 47.6169 32.7933 48.3369 33.34C49.0702 33.8733 49.6369 34.64 50.0369 35.64C50.4502 36.6267 50.6569 37.7933 50.6569 39.14C50.6569 40.5 50.4502 41.68 50.0369 42.68C49.6369 43.6667 49.0702 44.4333 48.3369 44.98C47.6169 45.5133 46.7969 45.78 45.8769 45.78C44.9569 45.78 44.1369 45.5133 43.4169 44.98C42.6969 44.4333 42.1302 43.6667 41.7169 42.68C41.3035 41.68 41.0969 40.5 41.0969 39.14C41.0969 37.7933 41.3035 36.6267 41.7169 35.64C42.1302 34.64 42.6969 33.8733 43.4169 33.34C44.1369 32.7933 44.9569 32.52 45.8769 32.52ZM45.8769 34.94C45.4369 34.94 45.0435 35.1 44.6969 35.42C44.3635 35.74 44.0969 36.2133 43.8969 36.84C43.7102 37.4533 43.6169 38.22 43.6169 39.14C43.6169 40.0467 43.7102 40.82 43.8969 41.46C44.0969 42.0867 44.3635 42.56 44.6969 42.88C45.0435 43.2 45.4369 43.36 45.8769 43.36C46.3435 43.36 46.7435 43.2 47.0769 42.88C47.4102 42.56 47.6702 42.0867 47.8569 41.46C48.0435 40.82 48.1369 40.0467 48.1369 39.14C48.1369 38.22 48.0435 37.4533 47.8569 36.84C47.6702 36.2133 47.4102 35.74 47.0769 35.42C46.7435 35.1 46.3435 34.94 45.8769 34.94ZM53.6969 31.22H56.3569V49.8H53.6969V31.22ZM72.1753 31.24H74.7153V49.76H72.1753V31.24ZM69.7153 38.38H72.7953V40.52H69.7153V38.38ZM68.0353 31.56H70.4953V48.9H68.0353V31.56ZM59.3353 43.4H60.6153C61.3886 43.4 62.122 43.3933 62.8153 43.38C63.5086 43.3533 64.1953 43.3067 64.8753 43.24C65.5686 43.16 66.2753 43.06 66.9953 42.94L67.2153 45.1C66.4686 45.2333 65.742 45.34 65.0353 45.42C64.3286 45.5 63.6153 45.5533 62.8953 45.58C62.1753 45.5933 61.4153 45.6 60.6153 45.6H59.3353V43.4ZM59.3353 33.4H66.1553V35.54H61.9553V44.46H59.3353V33.4Z" fill="#FC6C2E"/>
</svg>
