<svg width="80" height="80" viewBox="0 0 80 80" fill="none" xmlns="http://www.w3.org/2000/svg">
<circle cx="40" cy="40" r="40" fill="#FFD8D8"/>
<path d="M24.72 31.26H27.38V45.1H24.72V31.26ZM26.64 36.9H29.84V39.1H26.64V36.9ZM12.82 33.2H23.7V35.28H12.82V33.2ZM18.26 35.94C19.1533 35.94 19.94 36.0933 20.62 36.4C21.3133 36.6933 21.8533 37.1133 22.24 37.66C22.6267 38.1933 22.82 38.8067 22.82 39.5C22.82 40.2067 22.6267 40.8333 22.24 41.38C21.8533 41.9133 21.3133 42.3333 20.62 42.64C19.94 42.9333 19.1533 43.08 18.26 43.08C17.38 43.08 16.5933 42.9333 15.9 42.64C15.2067 42.3333 14.6667 41.9133 14.28 41.38C13.8933 40.8333 13.7 40.2067 13.7 39.5C13.7 38.8067 13.8933 38.1933 14.28 37.66C14.6667 37.1133 15.2067 36.6933 15.9 36.4C16.5933 36.0933 17.38 35.94 18.26 35.94ZM18.26 37.96C17.6733 37.96 17.1933 38.0933 16.82 38.36C16.4467 38.6267 16.26 39.0133 16.26 39.52C16.26 40.0133 16.4467 40.3933 16.82 40.66C17.1933 40.9267 17.6733 41.06 18.26 41.06C18.86 41.06 19.34 40.9267 19.7 40.66C20.0733 40.3933 20.26 40.0133 20.26 39.52C20.26 39.0133 20.0733 38.6267 19.7 38.36C19.34 38.0933 18.86 37.96 18.26 37.96ZM16.94 31.24H19.58V34.2H16.94V31.24ZM15.44 47.32H28.04V49.46H15.44V47.32ZM15.44 44.06H18.12V48.24H15.44V44.06ZM32.8784 32.04H44.5984V34.16H32.8784V32.04ZM30.8184 38.42H47.5984V40.56H30.8184V38.42ZM37.8584 39.92H40.4984V43.8H37.8584V39.92ZM42.9984 32.04H45.6184V33.52C45.6184 34.32 45.5918 35.2 45.5384 36.16C45.4984 37.1067 45.3318 38.1867 45.0384 39.4L42.4384 39.16C42.7184 37.96 42.8784 36.92 42.9184 36.04C42.9718 35.1467 42.9984 34.3067 42.9984 33.52V32.04ZM32.4984 43.16H45.6584V49.78H42.9984V45.26H32.4984V43.16ZM62.1769 31.24H64.7169V49.76H62.1769V31.24ZM59.7169 38.38H62.7969V40.52H59.7169V38.38ZM58.0369 31.56H60.4969V48.9H58.0369V31.56ZM49.3369 43.4H50.6169C51.3902 43.4 52.1235 43.3933 52.8169 43.38C53.5102 43.3533 54.1969 43.3067 54.8769 43.24C55.5702 43.16 56.2769 43.06 56.9969 42.94L57.2169 45.1C56.4702 45.2333 55.7435 45.34 55.0369 45.42C54.3302 45.5 53.6169 45.5533 52.8969 45.58C52.1769 45.5933 51.4169 45.6 50.6169 45.6H49.3369V43.4ZM49.3369 33.4H56.1569V35.54H51.9569V44.46H49.3369V33.4Z" fill="#EB5A5A"/>
</svg>
