<svg width="36" height="36" viewBox="0 0 36 36" fill="none" xmlns="http://www.w3.org/2000/svg">
<path d="M30.375 12.7666C31.7011 13.1932 32.625 14.4588 32.625 15.9123V22.3407C32.625 24.0456 31.3539 25.4914 29.6546 25.6301C29.1462 25.6716 28.6363 25.7078 28.125 25.7389V30.375L23.625 25.875C21.5944 25.875 19.5834 25.7922 17.5953 25.6299C17.1479 25.5934 16.7301 25.4662 16.3574 25.2676M30.375 12.7666C30.1479 12.6935 29.909 12.645 29.6609 12.6244C27.6708 12.4592 25.6577 12.375 23.6249 12.375C21.5922 12.375 19.5792 12.4592 17.5891 12.6244C15.8925 12.7652 14.625 14.2098 14.625 15.9123V22.3405C14.625 23.5965 15.3148 24.7118 16.3574 25.2676M30.375 12.7666V9.95596C30.375 7.52384 28.6474 5.41597 26.2355 5.10286C23.1717 4.70514 20.0475 4.5 16.8754 4.5C13.703 4.5 10.5785 4.70518 7.51445 5.10298C5.10259 5.41612 3.375 7.52397 3.375 9.95607V19.294C3.375 21.7261 5.1026 23.8339 7.51447 24.1471C8.37991 24.2594 9.25019 24.3564 10.125 24.4377V31.5L16.3574 25.2676" stroke="#111111" stroke-width="2.25" stroke-linecap="round" stroke-linejoin="round"/>
<circle cx="20" cy="19" r="1" fill="#111111"/>
<circle cx="24" cy="19" r="1" fill="#111111"/>
<circle cx="28" cy="19" r="1" fill="#111111"/>
</svg>
