<svg width="36" height="36" viewBox="0 0 36 36" fill="none" xmlns="http://www.w3.org/2000/svg">
<path d="M6.38899 15.22C5.98032 18.346 5.73208 21.5225 5.65279 24.7409C9.99676 26.5546 14.1284 28.7753 18 31.3553C21.8716 28.7753 26.0032 26.5546 30.3472 24.7409C30.2679 21.5225 30.0197 18.3461 29.611 15.22M6.38899 15.22C5.07543 14.7784 3.74594 14.3716 2.40161 14.0005C7.26969 10.5883 12.4911 7.64579 18.0001 5.23883C23.509 7.6458 28.7304 10.5883 33.5985 14.0006C32.2542 14.3716 30.9246 14.7785 29.611 15.22M6.38899 15.22C10.4198 16.5748 14.3007 18.2563 18.0001 20.233C21.6994 18.2564 25.5802 16.5749 29.611 15.22M10.125 22.5C10.7463 22.5 11.25 21.9963 11.25 21.375C11.25 20.7537 10.7463 20.25 10.125 20.25C9.50368 20.25 9 20.7537 9 21.375C9 21.9963 9.50368 22.5 10.125 22.5ZM10.125 22.5V16.9867C12.6622 15.4102 15.2904 13.9664 18 12.6649M7.48896 29.9889C9.24632 28.2316 10.125 25.9283 10.125 23.625V21.375" stroke="#111111" stroke-width="2.25" stroke-linecap="round" stroke-linejoin="round"/>
</svg>
