<svg width="36" height="36" viewBox="0 0 36 36" fill="none" xmlns="http://www.w3.org/2000/svg">
<path d="M3.40961 8.43785C4.59957 7.3874 6.16277 6.75 7.87484 6.75H28.1248C29.8369 6.75 31.4001 7.38741 32.5901 8.43786C32.3134 6.21788 30.4197 4.5 28.1248 4.5H7.87484C5.57993 4.5 3.68626 6.21788 3.40961 8.43785Z" fill="#111111"/>
<path d="M3.40961 12.9379C4.59957 11.8874 6.16277 11.25 7.87484 11.25H28.1248C29.8369 11.25 31.4001 11.8874 32.5901 12.9379C32.3134 10.7179 30.4197 9 28.1248 9H7.87484C5.57993 9 3.68626 10.7179 3.40961 12.9379Z" fill="#111111"/>
<path d="M7.875 13.5C5.38972 13.5 3.375 15.5147 3.375 18V27C3.375 29.4853 5.38972 31.5 7.875 31.5H28.125C30.6103 31.5 32.625 29.4853 32.625 27V18C32.625 15.5147 30.6103 13.5 28.125 13.5H22.5C21.8787 13.5 21.375 14.0037 21.375 14.625C21.375 16.489 19.864 18 18 18C16.136 18 14.625 16.489 14.625 14.625C14.625 14.0037 14.1213 13.5 13.5 13.5H7.875Z" fill="#111111"/>
</svg>
