<svg width="36" height="36" viewBox="0 0 36 36" fill="none" xmlns="http://www.w3.org/2000/svg">
<path d="M16.875 3.375C20.0955 3.375 23.2684 3.58339 26.3799 3.9873C29.2632 4.36161 31.3172 6.7789 31.4883 9.57715C30.9997 9.41402 30.482 9.30572 29.9404 9.26074C27.8576 9.08787 25.751 9 23.625 9C21.499 9 19.3924 9.08787 17.3096 9.26074C13.7724 9.55452 11.2501 12.547 11.25 15.9121V22.3408C11.2501 24.8767 12.6823 27.1986 14.8994 28.3164L10.9209 32.2959C10.5992 32.6176 10.1147 32.7132 9.69434 32.5391C9.27408 32.3649 9 31.9549 9 31.5V25.4561C8.45474 25.3977 7.91077 25.333 7.36914 25.2627C4.35676 24.8714 2.25 22.2498 2.25 19.2939V9.95605C2.25001 7.00022 4.35677 4.37864 7.36914 3.9873C10.4809 3.5833 13.6542 3.37502 16.875 3.375ZM23.625 11.25C25.6888 11.25 27.7329 11.3352 29.7539 11.5029C32.0628 11.6946 33.7499 13.6541 33.75 15.9121V22.3408C33.7499 24.6023 32.0579 26.5623 29.7461 26.751C29.5809 26.7645 29.4155 26.7776 29.25 26.79V30.375C29.25 30.8299 28.9759 31.2399 28.5557 31.4141C28.1353 31.5882 27.6509 31.4926 27.3291 31.1709L23.1572 26.999C21.2549 26.9873 19.3696 26.9033 17.5039 26.751C15.1921 26.5623 13.5001 24.6022 13.5 22.3408V15.9121C13.5001 13.6541 15.1872 11.6946 17.4961 11.5029C19.5171 11.3352 21.5612 11.25 23.625 11.25ZM20 18C19.4477 18 19 18.4477 19 19C19 19.5523 19.4477 20 20 20C20.5523 20 21 19.5523 21 19C21 18.4477 20.5523 18 20 18ZM24 18C23.4477 18 23 18.4477 23 19C23 19.5523 23.4477 20 24 20C24.5523 20 25 19.5523 25 19C25 18.4477 24.5523 18 24 18ZM28 18C27.4477 18 27 18.4477 27 19C27 19.5523 27.4477 20 28 20C28.5523 20 29 19.5523 29 19C29 18.4477 28.5523 18 28 18Z" fill="#0F172A"/>
</svg>
